<svg fill="currentColor" xmlns="http://www.w3.org/2000/svg" viewBox="0 0 512 512"><!--! Font Awesome Pro 6.4.2 by @fontawesome - https://fontawesome.com License - https://fontawesome.com/license (Commercial License) Copyright 2023 Fonticons, Inc. --><defs><style>.fa-secondary{opacity:.4}</style></defs><path class="fa-primary" d="M104.6 32C115.6 12.9 136.3 0 160 0s44.4 12.9 55.4 32H272c26.5 0 48 21.5 48 48V96H272c-44.2 0-80 35.8-80 80V448H48c-26.5 0-48-21.5-48-48V80C0 53.5 21.5 32 48 32h56.6zM184 64a24 24 0 1 0 -48 0 24 24 0 1 0 48 0zm232 64l96 96H448c-17.7 0-32-14.3-32-32V128z"/><path class="fa-secondary" d="M272 128c-26.5 0-48 21.5-48 48V464c0 26.5 21.5 48 48 48H464c26.5 0 48-21.5 48-48V224H448c-17.7 0-32-14.3-32-32V128H272z"/></svg>