<svg fill="currentColor" xmlns="http://www.w3.org/2000/svg" viewBox="0 0 640 512"><!--! Font Awesome Pro 6.4.2 by @fontawesome - https://fontawesome.com License - https://fontawesome.com/license (Commercial License) Copyright 2023 Fonticons, Inc. --><path d="M117.4 0h14.2H160h24 12 44 24V24c0 30.9 25.1 56 56 56s56-25.1 56-56V0h24 44 12 24 28.4 14.2l6.8 12.4 13.7 24.9 88 160 5.9 10.8 3 5.4v6.2V232 424v24H616 520 496V424 250.5l-16-29.1V488v24H456 184 160V488 221.4l-16 29.1V424v24H120 24 0V424 232 219.7v-6.2l3-5.4 5.9-10.8 88-160 13.7-24.9L117.4 0zm28.4 48L139 60.4l-88 160-3 5.4V232 400H96V244.3v-6.2l3-5.4 64-116.4L208 128V464H432V128l45-11.6 64 116.4 3 5.4v6.2V400h48V232v-6.2l-3-5.4-88-160L494.2 48H480 456 444 421.2c-10.8 45.9-52 80-101.2 80s-90.4-34.1-101.2-80H196 184 160 145.8z"/></svg>