<svg fill="currentColor" xmlns="http://www.w3.org/2000/svg" viewBox="0 0 640 512"><!--! Font Awesome Pro 6.4.2 by @fontawesome - https://fontawesome.com License - https://fontawesome.com/license (Commercial License) Copyright 2023 Fonticons, Inc. --><path d="M203.7 0h8.7H224h8.4 21.9l2 21.8C259.2 54.4 286.6 80 320 80s60.8-25.6 63.7-58.2l2-21.8h21.9H416h11.6 8.7L443 5.6l8.9 7.4 144 120L621 154l18.9 15.7-16.2 18.5-21.6 24.7-56 64-20.6 23.5L510.1 318l-18-15L480 292.9V488v24H456 184 160V488 292.9L147.9 303l-18 15-15.4-17.6L93.9 276.9l-56-64L16.3 188.2 .1 169.7 19 154l25.2-21 144-120L197 5.6 203.7 0zm10.7 53.5L74.9 169.9l-6.3 5.2 5.4 6.2 56 64 5.1 5.9 6-5 27.5-22.9L208 190.4v51.2V464H432V241.7 190.4l39.4 32.8 27.5 22.9 6 5 5.1-5.9 56-64 5.4-6.2-6.3-5.2L425.5 53.5C410.1 96.9 368.7 128 320 128s-90.1-31.1-105.5-74.5z"/></svg>