<svg fill="currentColor" xmlns="http://www.w3.org/2000/svg" viewBox="0 0 640 512"><!--! Font Awesome Pro 6.4.2 by @fontawesome - https://fontawesome.com License - https://fontawesome.com/license (Commercial License) Copyright 2023 Fonticons, Inc. --><path d="M188.4 48c-26.3 0-50.4 14.3-63.1 37.3L58.9 206C51.7 219 48 233.6 48 248.4V392c0 4.4 3.6 8 8 8H88c4.4 0 8-3.6 8-8V248.4c0-6.7 1.7-13.4 5-19.3l62-112.8c5.3-9.6 16.4-14.4 27-11.7s18 12.3 18 23.2V448c0 8.8 7.2 16 16 16H416c8.8 0 16-7.2 16-16V128c0-11 7.4-20.5 18-23.2s21.7 2.1 27 11.7l62 112.8-21 11.6 21-11.6c3.2 5.9 5 12.5 5 19.3V392c0 4.4 3.6 8 8 8h32c4.4 0 8-3.6 8-8V248.4c0-14.8-3.7-29.4-10.9-42.4L514.7 85.3C502.1 62.3 477.9 48 451.6 48H444c-.4 0-.9 0-1.3 0c-1 .1-2 0-3 0H421.2c-10.8 45.9-52 80-101.2 80s-90.4-34.1-101.2-80H200.3c-1 .1-2 .1-3 0c-.4 0-.9 0-1.3 0h-7.6zM83.2 62.2C104.3 23.8 144.6 0 188.4 0H196c.8 0 1.5 0 2.3 0c.6 0 1.1 0 1.7 0h24c23 0 37.7 18.2 41.1 35.2C270.3 60.7 292.9 80 320 80s49.7-19.3 54.9-44.8C378.3 18.2 393 0 416 0h24c.6 0 1.1 0 1.7 0c.8 0 1.5 0 2.3 0h7.6c43.8 0 84.1 23.8 105.1 62.2l66.4 120.7c11 20.1 16.8 42.6 16.8 65.5V392c0 30.9-25.1 56-56 56H552c-30.9 0-56-25.1-56-56V250.5l-16-29.1V448c0 35.3-28.7 64-64 64H224c-35.3 0-64-28.7-64-64V221.4l-16 29.1V392c0 30.9-25.1 56-56 56H56c-30.9 0-56-25.1-56-56V248.4c0-22.9 5.8-45.5 16.8-65.5L83.2 62.2z"/></svg>